<svg width="84" height="84" viewBox="0 0 84 84" fill="none" xmlns="http://www.w3.org/2000/svg">
<g clip-path="url(#clip0_38_2213)">
<path d="M48.2245 15.0272C44.7868 18.4649 39.2132 18.4649 35.7755 15.0272C32.3378 11.5895 32.3378 6.01595 35.7755 2.57826C39.2132 -0.859421 44.7868 -0.859421 48.2245 2.57826C51.6622 6.01595 51.6622 11.5895 48.2245 15.0272Z" fill="white"/>
<path d="M31.6259 31.6262C28.1882 35.0639 22.6146 35.0639 19.1769 31.6262C15.7392 28.1885 15.7392 22.6149 19.1769 19.1773C22.6146 15.7396 28.1882 15.7396 31.6259 19.1773C35.0635 22.6149 35.0635 28.1885 31.6259 31.6262Z" fill="white"/>
<path d="M15.0272 48.2245C11.5895 51.6622 6.01595 51.6622 2.57826 48.2245C-0.859421 44.7868 -0.859421 39.2132 2.57826 35.7755C6.01595 32.3378 11.5895 32.3378 15.0272 35.7755C18.4649 39.2132 18.4649 44.7868 15.0272 48.2245Z" fill="white"/>
<path d="M64.8231 31.6262C61.3854 35.0639 55.8118 35.0639 52.3742 31.6262C48.9365 28.1885 48.9365 22.6149 52.3742 19.1773C55.8118 15.7396 61.3854 15.7396 64.8231 19.1773C68.2608 22.6149 68.2608 28.1885 64.8231 31.6262Z" fill="white"/>
<path d="M48.2245 48.2245C44.7868 51.6622 39.2132 51.6622 35.7755 48.2245C32.3378 44.7868 32.3378 39.2132 35.7755 35.7755C39.2132 32.3378 44.7868 32.3378 48.2245 35.7755C51.6622 39.2132 51.6622 44.7868 48.2245 48.2245Z" fill="white"/>
<path d="M31.6259 64.8227C28.1882 68.2604 22.6146 68.2604 19.1769 64.8227C15.7392 61.3851 15.7392 55.8115 19.1769 52.3738C22.6146 48.9361 28.1882 48.9361 31.6259 52.3738C35.0635 55.8115 35.0635 61.3851 31.6259 64.8227Z" fill="white"/>
<path d="M81.4217 48.2245C77.9841 51.6622 72.4105 51.6622 68.9728 48.2245C65.5351 44.7868 65.5351 39.2132 68.9728 35.7755C72.4105 32.3378 77.9841 32.3378 81.4217 35.7755C84.8594 39.2132 84.8594 44.7868 81.4217 48.2245Z" fill="white"/>
<path d="M64.8231 64.8227C61.3854 68.2604 55.8118 68.2604 52.3742 64.8227C48.9365 61.3851 48.9365 55.8115 52.3742 52.3738C55.8118 48.9361 61.3854 48.9361 64.8231 52.3738C68.2608 55.8115 68.2608 61.3851 64.8231 64.8227Z" fill="white"/>
<path d="M48.2245 81.4217C44.7868 84.8594 39.2132 84.8594 35.7755 81.4217C32.3378 77.9841 32.3378 72.4105 35.7755 68.9728C39.2132 65.5351 44.7868 65.5351 48.2245 68.9728C51.6622 72.4105 51.6622 77.9841 48.2245 81.4217Z" fill="white"/>
</g>
<defs>
<clipPath id="clip0_38_2213">
<rect width="840" height="84" fill="white"/>
</clipPath>
</defs>
</svg>

